# xmcd
#
# Track frame offsets:
#	150
#	20000
#	40537
#	59475
#	81962
#	100512
#	120625
#	140387
#	160900
#	181037
#
# Disc length: 2665 seconds
#
# Revision: 1
# Processed by: cddbd v1.5.2PL0 Copyright (c) Steve Scherf et al.
# Submitted via: EZCDAudioConverter 8.0.2.1
#
DISCID=760a670a
DTITLE=刘德华 - 谢谢您的爱系列 - 忘情水
DYEAR=1994
DGENRE=World Pop
TTITLE0=忘情水
TTITLE1=缠绵
TTITLE2=不该爱上你
TTITLE3=错怪
TTITLE4=心酸
TTITLE5=你是我的温柔
TTITLE6=痴
TTITLE7=最孤单的人是我
TTITLE8=峰回路转
TTITLE9=想要飞
EXTD=
EXTT0=
EXTT1=
EXTT2=
EXTT3=
EXTT4=
EXTT5=
EXTT6=
EXTT7=
EXTT8=
EXTT9=
PLAYORDER=
